<mxfile host="65bd71144e" modified="2020-10-23T04:46:55.634Z" agent="5.0 (X11; Linux x86_64) AppleWebKit/537.36 (KHTML, like Gecko) Code/1.50.1 Chrome/83.0.4103.122 Electron/9.2.1 Safari/537.36" version="13.6.5" etag="q3fTs4dXhz1QJaQUkL6i">
    <diagram id="7xHtjGeUKTEk6JzbgG9E" name="Page-1">
        <mxGraphModel dx="1235" dy="585" grid="1" gridSize="10" guides="1" tooltips="1" connect="1" arrows="1" fold="1" page="1" pageScale="1" pageWidth="1100" pageHeight="850" math="0" shadow="0">
            <root>
                <mxCell id="0"/>
                <mxCell id="1" parent="0"/>
                <mxCell id="10" value="Navigate to&lt;br&gt;First Apparatus" style="edgeStyle=orthogonalEdgeStyle;rounded=0;orthogonalLoop=1;jettySize=auto;html=1;entryX=0.25;entryY=0;entryDx=0;entryDy=0;exitX=0.25;exitY=1;exitDx=0;exitDy=0;" edge="1" parent="1" source="4" target="8">
                    <mxGeometry relative="1" as="geometry">
                        <Array as="points">
                            <mxPoint x="515" y="365"/>
                            <mxPoint x="528" y="365"/>
                        </Array>
                    </mxGeometry>
                </mxCell>
                <mxCell id="4" value="/incidents/:id&lt;br&gt;" style="rounded=1;whiteSpace=wrap;html=1;" vertex="1" parent="1">
                    <mxGeometry x="485" y="275" width="120" height="60" as="geometry"/>
                </mxCell>
                <mxCell id="6" value="Navigate to&lt;br&gt;First Incident" style="edgeStyle=orthogonalEdgeStyle;rounded=0;orthogonalLoop=1;jettySize=auto;html=1;entryX=0;entryY=0.25;entryDx=0;entryDy=0;exitX=0.5;exitY=1;exitDx=0;exitDy=0;" edge="1" parent="1" source="5" target="4">
                    <mxGeometry relative="1" as="geometry"/>
                </mxCell>
                <mxCell id="5" value="/incidents" style="ellipse;whiteSpace=wrap;html=1;aspect=fixed;" vertex="1" parent="1">
                    <mxGeometry x="310" y="180" width="80" height="80" as="geometry"/>
                </mxCell>
                <mxCell id="7" value="Navigate" style="edgeStyle=orthogonalEdgeStyle;rounded=0;orthogonalLoop=1;jettySize=auto;html=1;entryX=0.75;entryY=0;entryDx=0;entryDy=0;exitX=0.75;exitY=1;exitDx=0;exitDy=0;" edge="1" parent="1" source="4" target="4">
                    <mxGeometry relative="1" as="geometry">
                        <Array as="points">
                            <mxPoint x="575" y="355"/>
                            <mxPoint x="655" y="355"/>
                            <mxPoint x="655" y="255"/>
                            <mxPoint x="575" y="255"/>
                        </Array>
                    </mxGeometry>
                </mxCell>
                <mxCell id="12" value="Navigate to&amp;nbsp;&lt;br&gt;First Status Update" style="edgeStyle=orthogonalEdgeStyle;rounded=0;orthogonalLoop=1;jettySize=auto;html=1;entryX=0.25;entryY=0;entryDx=0;entryDy=0;exitX=0.25;exitY=1;exitDx=0;exitDy=0;" edge="1" parent="1" source="8" target="11">
                    <mxGeometry relative="1" as="geometry"/>
                </mxCell>
                <mxCell id="8" value="/incidents/:id/apparatus/:id" style="rounded=1;whiteSpace=wrap;html=1;" vertex="1" parent="1">
                    <mxGeometry x="485" y="420" width="170" height="60" as="geometry"/>
                </mxCell>
                <mxCell id="9" value="Navigate" style="edgeStyle=orthogonalEdgeStyle;rounded=0;orthogonalLoop=1;jettySize=auto;html=1;entryX=0.75;entryY=0;entryDx=0;entryDy=0;exitX=0.75;exitY=1;exitDx=0;exitDy=0;" edge="1" parent="1" source="8" target="8">
                    <mxGeometry relative="1" as="geometry">
                        <Array as="points">
                            <mxPoint x="612" y="500"/>
                            <mxPoint x="705" y="500"/>
                            <mxPoint x="705" y="400"/>
                            <mxPoint x="612" y="400"/>
                        </Array>
                    </mxGeometry>
                </mxCell>
                <mxCell id="14" value="Navigate" style="edgeStyle=orthogonalEdgeStyle;rounded=0;orthogonalLoop=1;jettySize=auto;html=1;entryX=0;entryY=0.5;entryDx=0;entryDy=0;exitX=0;exitY=0.25;exitDx=0;exitDy=0;" edge="1" parent="1" source="11" target="8">
                    <mxGeometry relative="1" as="geometry">
                        <Array as="points">
                            <mxPoint x="440" y="575"/>
                            <mxPoint x="440" y="450"/>
                        </Array>
                    </mxGeometry>
                </mxCell>
                <mxCell id="15" value="Navigate" style="edgeStyle=orthogonalEdgeStyle;rounded=0;orthogonalLoop=1;jettySize=auto;html=1;entryX=0;entryY=0.75;entryDx=0;entryDy=0;exitX=0;exitY=0.75;exitDx=0;exitDy=0;" edge="1" parent="1" source="11" target="4">
                    <mxGeometry relative="1" as="geometry">
                        <Array as="points">
                            <mxPoint x="395" y="605"/>
                            <mxPoint x="395" y="320"/>
                        </Array>
                    </mxGeometry>
                </mxCell>
                <mxCell id="11" value="/incidents/:id/apparatus/:id/status_update/:id" style="rounded=1;whiteSpace=wrap;html=1;" vertex="1" parent="1">
                    <mxGeometry x="485" y="560" width="280" height="60" as="geometry"/>
                </mxCell>
                <mxCell id="13" value="Navigate" style="edgeStyle=orthogonalEdgeStyle;rounded=0;orthogonalLoop=1;jettySize=auto;html=1;entryX=0.75;entryY=0;entryDx=0;entryDy=0;exitX=0.75;exitY=1;exitDx=0;exitDy=0;" edge="1" parent="1" source="11" target="11">
                    <mxGeometry relative="1" as="geometry">
                        <Array as="points">
                            <mxPoint x="695" y="640"/>
                            <mxPoint x="805" y="640"/>
                            <mxPoint x="805" y="540"/>
                            <mxPoint x="695" y="540"/>
                        </Array>
                    </mxGeometry>
                </mxCell>
            </root>
        </mxGraphModel>
    </diagram>
</mxfile>
